G04*
G04 #@! TF.GenerationSoftware,Altium Limited,Altium Designer,20.0.14 (345)*
G04*
G04 Layer_Color=65535*
%FSLAX23Y23*%
%MOIN*%
G70*
G01*
G75*
%ADD10C,0.008*%
%ADD11C,0.006*%
%ADD12C,0.010*%
D10*
X5058Y4368D02*
G03*
X5067Y4506I-33J72D01*
G01*
X4983D02*
G03*
X4992Y4368I42J-66D01*
G01*
X2843Y4318D02*
G03*
X2852Y4456I-33J72D01*
G01*
X2768D02*
G03*
X2777Y4318I42J-66D01*
G01*
X5043Y3197D02*
G03*
X5052Y3335I-33J72D01*
G01*
X4968D02*
G03*
X4977Y3197I42J-66D01*
G01*
X2838Y3293D02*
G03*
X2847Y3431I-33J72D01*
G01*
X2763D02*
G03*
X2772Y3293I42J-66D01*
G01*
X4680Y4720D02*
Y4820D01*
X5480D01*
Y4720D02*
Y4820D01*
X4680Y4720D02*
X5480D01*
X3325D02*
Y4820D01*
X4125D01*
Y4720D02*
Y4820D01*
X3325Y4720D02*
X4125D01*
X4740Y4465D02*
X4820D01*
Y4225D02*
Y4465D01*
X4740Y4225D02*
X4820D01*
X4740D02*
Y4465D01*
X4780D02*
Y4505D01*
Y4185D02*
Y4225D01*
X2530Y4440D02*
X2610D01*
Y4200D02*
Y4440D01*
X2530Y4200D02*
X2610D01*
X2530D02*
Y4440D01*
X2570D02*
Y4480D01*
Y4160D02*
Y4200D01*
X3970Y3670D02*
X4050D01*
X3970D02*
Y3910D01*
X4050D01*
Y3670D02*
Y3910D01*
X4010Y3630D02*
Y3670D01*
Y3910D02*
Y3950D01*
X1780Y3700D02*
X1860D01*
X1780D02*
Y3940D01*
X1860D01*
Y3700D02*
Y3940D01*
X1820Y3660D02*
Y3700D01*
Y3940D02*
Y3980D01*
X1055Y3645D02*
X1155D01*
Y3145D02*
Y3645D01*
X1055Y3145D02*
Y3645D01*
Y3145D02*
X1155D01*
X5470Y2500D02*
Y2600D01*
X4670Y2500D02*
X5470D01*
X4670D02*
Y2600D01*
X5470D01*
X4115Y2495D02*
Y2595D01*
X3315Y2495D02*
X4115D01*
X3315D02*
Y2595D01*
X4115D01*
X3250Y2495D02*
Y2595D01*
X2450Y2495D02*
X3250D01*
X2450D02*
Y2595D01*
X3250D01*
X1880Y2500D02*
Y2600D01*
X1080Y2500D02*
X1880D01*
X1080D02*
Y2600D01*
X1880D01*
X4750Y3300D02*
X4830D01*
Y3060D02*
Y3300D01*
X4750Y3060D02*
X4830D01*
X4750D02*
Y3300D01*
X4790D02*
Y3340D01*
Y3020D02*
Y3060D01*
X2520Y3395D02*
X2600D01*
Y3155D02*
Y3395D01*
X2520Y3155D02*
X2600D01*
X2520D02*
Y3395D01*
X2560D02*
Y3435D01*
Y3115D02*
Y3155D01*
X3955Y3120D02*
X4035D01*
Y2880D02*
Y3120D01*
X3955Y2880D02*
X4035D01*
X3955D02*
Y3120D01*
X3995D02*
Y3160D01*
Y2840D02*
Y2880D01*
X1760Y3170D02*
X1840D01*
Y2930D02*
Y3170D01*
X1760Y2930D02*
X1840D01*
X1760D02*
Y3170D01*
X1800D02*
Y3210D01*
Y2890D02*
Y2930D01*
X2450Y4720D02*
Y4820D01*
X3250D01*
Y4720D02*
Y4820D01*
X2450Y4720D02*
X3250D01*
X1075Y4715D02*
Y4815D01*
X1875D01*
Y4715D02*
Y4815D01*
X1075Y4715D02*
X1875D01*
D11*
X4524Y4569D02*
Y4582D01*
X4216Y3958D02*
Y3971D01*
Y3958D02*
X4524D01*
Y3971D01*
X4216Y4582D02*
X4524D01*
X4216Y4569D02*
Y4582D01*
X4540Y3379D02*
Y3392D01*
X4232Y2768D02*
Y2781D01*
Y2768D02*
X4540D01*
Y2781D01*
X4232Y3392D02*
X4540D01*
X4232Y3379D02*
Y3392D01*
X2315Y3429D02*
Y3442D01*
X2007Y2818D02*
Y2831D01*
Y2818D02*
X2315D01*
Y2831D01*
X2007Y3442D02*
X2315D01*
X2007Y3429D02*
Y3442D01*
X2313Y4599D02*
Y4612D01*
X2006Y3988D02*
Y4001D01*
Y3988D02*
X2313D01*
Y4001D01*
X2006Y4612D02*
X2313D01*
X2006Y4599D02*
Y4612D01*
D12*
X2526Y3537D02*
Y3597D01*
X2556D01*
X2566Y3587D01*
Y3567D01*
X2556Y3557D01*
X2526D01*
X2546D02*
X2566Y3537D01*
X2586Y3587D02*
X2596Y3597D01*
X2616D01*
X2626Y3587D01*
Y3577D01*
X2616Y3567D01*
X2626Y3557D01*
Y3547D01*
X2616Y3537D01*
X2596D01*
X2586Y3547D01*
Y3557D01*
X2596Y3567D01*
X2586Y3577D01*
Y3587D01*
X2596Y3567D02*
X2616D01*
X4756Y3442D02*
Y3502D01*
X4786D01*
X4796Y3492D01*
Y3472D01*
X4786Y3462D01*
X4756D01*
X4776D02*
X4796Y3442D01*
X4816Y3502D02*
X4856D01*
Y3492D01*
X4816Y3452D01*
Y3442D01*
X4746Y4607D02*
Y4667D01*
X4776D01*
X4786Y4657D01*
Y4637D01*
X4776Y4627D01*
X4746D01*
X4766D02*
X4786Y4607D01*
X4846Y4667D02*
X4826Y4657D01*
X4806Y4637D01*
Y4617D01*
X4816Y4607D01*
X4836D01*
X4846Y4617D01*
Y4627D01*
X4836Y4637D01*
X4806D01*
X2536Y4582D02*
Y4642D01*
X2566D01*
X2576Y4632D01*
Y4612D01*
X2566Y4602D01*
X2536D01*
X2556D02*
X2576Y4582D01*
X2636Y4642D02*
X2596D01*
Y4612D01*
X2616Y4622D01*
X2626D01*
X2636Y4612D01*
Y4592D01*
X2626Y4582D01*
X2606D01*
X2596Y4592D01*
X1766Y3312D02*
Y3372D01*
X1796D01*
X1806Y3362D01*
Y3342D01*
X1796Y3332D01*
X1766D01*
X1786D02*
X1806Y3312D01*
X1856D02*
Y3372D01*
X1826Y3342D01*
X1866D01*
X3961Y3262D02*
Y3322D01*
X3991D01*
X4001Y3312D01*
Y3292D01*
X3991Y3282D01*
X3961D01*
X3981D02*
X4001Y3262D01*
X4021Y3312D02*
X4031Y3322D01*
X4051D01*
X4061Y3312D01*
Y3302D01*
X4051Y3292D01*
X4041D01*
X4051D01*
X4061Y3282D01*
Y3272D01*
X4051Y3262D01*
X4031D01*
X4021Y3272D01*
X3977Y4051D02*
Y4111D01*
X4006D01*
X4016Y4101D01*
Y4081D01*
X4006Y4071D01*
X3977D01*
X3996D02*
X4016Y4051D01*
X4076D02*
X4036D01*
X4076Y4091D01*
Y4101D01*
X4066Y4111D01*
X4046D01*
X4036Y4101D01*
X1786Y4082D02*
Y4142D01*
X1816D01*
X1826Y4132D01*
Y4112D01*
X1816Y4102D01*
X1786D01*
X1806D02*
X1826Y4082D01*
X1846D02*
X1866D01*
X1856D01*
Y4142D01*
X1846Y4132D01*
X1943Y3474D02*
Y3534D01*
X1963Y3514D01*
X1983Y3534D01*
Y3474D01*
X2003D02*
Y3514D01*
X2023Y3534D01*
X2043Y3514D01*
Y3474D01*
Y3504D01*
X2003D01*
X2063Y3534D02*
X2103Y3474D01*
Y3534D02*
X2063Y3474D01*
X2153D02*
Y3534D01*
X2123Y3504D01*
X2163D01*
X4168Y3424D02*
Y3484D01*
X4188Y3464D01*
X4208Y3484D01*
Y3424D01*
X4228D02*
Y3464D01*
X4248Y3484D01*
X4268Y3464D01*
Y3424D01*
Y3454D01*
X4228D01*
X4288Y3484D02*
X4328Y3424D01*
Y3484D02*
X4288Y3424D01*
X4348Y3474D02*
X4358Y3484D01*
X4378D01*
X4388Y3474D01*
Y3464D01*
X4378Y3454D01*
X4368D01*
X4378D01*
X4388Y3444D01*
Y3434D01*
X4378Y3424D01*
X4358D01*
X4348Y3434D01*
X4153Y4615D02*
Y4674D01*
X4173Y4654D01*
X4193Y4674D01*
Y4615D01*
X4213D02*
Y4654D01*
X4233Y4674D01*
X4253Y4654D01*
Y4615D01*
Y4644D01*
X4213D01*
X4273Y4674D02*
X4313Y4615D01*
Y4674D02*
X4273Y4615D01*
X4373D02*
X4333D01*
X4373Y4654D01*
Y4664D01*
X4363Y4674D01*
X4343D01*
X4333Y4664D01*
X1061Y3739D02*
Y3679D01*
Y3709D01*
X1101D01*
Y3739D01*
Y3679D01*
X1121Y3689D02*
X1131Y3679D01*
X1151D01*
X1161Y3689D01*
Y3729D01*
X1151Y3739D01*
X1131D01*
X1121Y3729D01*
Y3719D01*
X1131Y3709D01*
X1161D01*
X1086Y2694D02*
Y2634D01*
Y2664D01*
X1126D01*
Y2694D01*
Y2634D01*
X1146Y2684D02*
X1156Y2694D01*
X1176D01*
X1186Y2684D01*
Y2674D01*
X1176Y2664D01*
X1186Y2654D01*
Y2644D01*
X1176Y2634D01*
X1156D01*
X1146Y2644D01*
Y2654D01*
X1156Y2664D01*
X1146Y2674D01*
Y2684D01*
X1156Y2664D02*
X1176D01*
X2456Y2689D02*
Y2629D01*
Y2659D01*
X2496D01*
Y2689D01*
Y2629D01*
X2516Y2689D02*
X2556D01*
Y2679D01*
X2516Y2639D01*
Y2629D01*
X3321Y2689D02*
Y2629D01*
Y2659D01*
X3361D01*
Y2689D01*
Y2629D01*
X3421Y2689D02*
X3401Y2679D01*
X3381Y2659D01*
Y2639D01*
X3391Y2629D01*
X3411D01*
X3421Y2639D01*
Y2649D01*
X3411Y2659D01*
X3381D01*
X4676Y2694D02*
Y2634D01*
Y2664D01*
X4716D01*
Y2694D01*
Y2634D01*
X4776Y2694D02*
X4736D01*
Y2664D01*
X4756Y2674D01*
X4766D01*
X4776Y2664D01*
Y2644D01*
X4766Y2634D01*
X4746D01*
X4736Y2644D01*
X4686Y4914D02*
Y4854D01*
Y4884D01*
X4726D01*
Y4914D01*
Y4854D01*
X4776D02*
Y4914D01*
X4746Y4884D01*
X4786D01*
X3331Y4914D02*
Y4854D01*
Y4884D01*
X3371D01*
Y4914D01*
Y4854D01*
X3391Y4904D02*
X3401Y4914D01*
X3421D01*
X3431Y4904D01*
Y4894D01*
X3421Y4884D01*
X3411D01*
X3421D01*
X3431Y4874D01*
Y4864D01*
X3421Y4854D01*
X3401D01*
X3391Y4864D01*
X2772Y3574D02*
X2762Y3584D01*
X2742D01*
X2732Y3574D01*
Y3534D01*
X2742Y3524D01*
X2762D01*
X2772Y3534D01*
X2822Y3524D02*
Y3584D01*
X2792Y3554D01*
X2832D01*
X4977Y3477D02*
X4967Y3487D01*
X4947D01*
X4937Y3477D01*
Y3437D01*
X4947Y3427D01*
X4967D01*
X4977Y3437D01*
X4997Y3477D02*
X5007Y3487D01*
X5027D01*
X5037Y3477D01*
Y3467D01*
X5027Y3457D01*
X5017D01*
X5027D01*
X5037Y3447D01*
Y3437D01*
X5027Y3427D01*
X5007D01*
X4997Y3437D01*
X4992Y4649D02*
X4982Y4659D01*
X4962D01*
X4952Y4649D01*
Y4609D01*
X4962Y4599D01*
X4982D01*
X4992Y4609D01*
X5052Y4599D02*
X5012D01*
X5052Y4639D01*
Y4649D01*
X5042Y4659D01*
X5022D01*
X5012Y4649D01*
X2777Y4599D02*
X2767Y4609D01*
X2747D01*
X2737Y4599D01*
Y4559D01*
X2747Y4549D01*
X2767D01*
X2777Y4559D01*
X2797Y4549D02*
X2817D01*
X2807D01*
Y4609D01*
X2797Y4599D01*
X1942Y4644D02*
Y4704D01*
X1962Y4684D01*
X1982Y4704D01*
Y4644D01*
X2002D02*
Y4684D01*
X2022Y4704D01*
X2042Y4684D01*
Y4644D01*
Y4674D01*
X2002D01*
X2062Y4704D02*
X2102Y4644D01*
Y4704D02*
X2062Y4644D01*
X2122D02*
X2142D01*
X2132D01*
Y4704D01*
X2122Y4694D01*
X2456Y4914D02*
Y4854D01*
Y4884D01*
X2496D01*
Y4914D01*
Y4854D01*
X2556D02*
X2516D01*
X2556Y4894D01*
Y4904D01*
X2546Y4914D01*
X2526D01*
X2516Y4904D01*
X1081Y4909D02*
Y4849D01*
Y4879D01*
X1121D01*
Y4909D01*
Y4849D01*
X1141D02*
X1161D01*
X1151D01*
Y4909D01*
X1141Y4899D01*
M02*
