G04*
G04 #@! TF.GenerationSoftware,Altium Limited,Altium Designer,20.0.14 (345)*
G04*
G04 Layer_Color=8421504*
%FSLAX23Y23*%
%MOIN*%
G70*
G01*
G75*
%ADD13R,0.078X0.021*%
D13*
X4186Y4545D02*
D03*
Y4495D02*
D03*
Y4445D02*
D03*
Y4395D02*
D03*
Y4345D02*
D03*
Y4295D02*
D03*
Y4245D02*
D03*
Y4195D02*
D03*
Y4145D02*
D03*
Y4095D02*
D03*
Y4045D02*
D03*
Y3995D02*
D03*
X4555D02*
D03*
Y4045D02*
D03*
Y4095D02*
D03*
Y4145D02*
D03*
Y4195D02*
D03*
Y4245D02*
D03*
Y4295D02*
D03*
Y4345D02*
D03*
Y4395D02*
D03*
Y4445D02*
D03*
Y4495D02*
D03*
Y4545D02*
D03*
X4201Y3355D02*
D03*
Y3305D02*
D03*
Y3255D02*
D03*
Y3205D02*
D03*
Y3155D02*
D03*
Y3105D02*
D03*
Y3055D02*
D03*
Y3005D02*
D03*
Y2955D02*
D03*
Y2905D02*
D03*
Y2855D02*
D03*
Y2805D02*
D03*
X4570D02*
D03*
Y2855D02*
D03*
Y2905D02*
D03*
Y2955D02*
D03*
Y3005D02*
D03*
Y3055D02*
D03*
Y3105D02*
D03*
Y3155D02*
D03*
Y3205D02*
D03*
Y3255D02*
D03*
Y3305D02*
D03*
Y3355D02*
D03*
X1976Y3405D02*
D03*
Y3355D02*
D03*
Y3305D02*
D03*
Y3255D02*
D03*
Y3205D02*
D03*
Y3155D02*
D03*
Y3105D02*
D03*
Y3055D02*
D03*
Y3005D02*
D03*
Y2955D02*
D03*
Y2905D02*
D03*
Y2855D02*
D03*
X2345D02*
D03*
Y2905D02*
D03*
Y2955D02*
D03*
Y3005D02*
D03*
Y3055D02*
D03*
Y3105D02*
D03*
Y3155D02*
D03*
Y3205D02*
D03*
Y3255D02*
D03*
Y3305D02*
D03*
Y3355D02*
D03*
Y3405D02*
D03*
X1975Y4575D02*
D03*
Y4525D02*
D03*
Y4475D02*
D03*
Y4425D02*
D03*
Y4375D02*
D03*
Y4325D02*
D03*
Y4275D02*
D03*
Y4225D02*
D03*
Y4175D02*
D03*
Y4125D02*
D03*
Y4075D02*
D03*
Y4025D02*
D03*
X2344D02*
D03*
Y4075D02*
D03*
Y4125D02*
D03*
Y4175D02*
D03*
Y4225D02*
D03*
Y4275D02*
D03*
Y4325D02*
D03*
Y4375D02*
D03*
Y4425D02*
D03*
Y4475D02*
D03*
Y4525D02*
D03*
Y4575D02*
D03*
M02*
