M48
;Layer_Color=9474304
;FILE_FORMAT=2:3
INCH,LZ
;TYPE=PLATED
T1F00S00C0.028
T2F00S00C0.031
T3F00S00C0.033
T4F00S00C0.035
%
T01
X05178Y02664
X04667Y03005
X04316Y02856
X04278Y02714
X0392Y02813
X04043Y02955
X04127Y03105
X03853
X02515Y02992
X02553Y02938
X02419Y03005
X01525Y04275
X01625Y04325
X01908Y04378
X01854Y04594
X01902Y04075
X01771Y0407
X019Y03327
X0186Y03202
X01909Y03167
X02439Y03205
X02606Y03377
X02507Y04503
X02447Y04475
X03145Y04496
X0402
X04061Y04395
X04267Y04373
X04377Y04595
X04632Y04345
X04481Y04145
Y04007
X04555Y0385
X04506Y03801
X04669Y03433
X04268Y03155
X04729Y03255
X04742Y03318
X04723Y04089
X04604Y04745
X04498Y04698
X03851Y04894
X0204Y04722
T02
X02805Y03267
Y03463
X0281Y04292
Y04488
X05025Y04538
Y04342
X0501Y03367
Y0317
T03
X0479Y0298
X03995Y028
X0256Y03075
X018Y0285
Y0325
X0182Y0362
Y0402
X0257Y0412
Y0452
X0256Y03475
X0401Y0359
Y0399
X03995Y032
X0479Y0338
X0478Y04145
Y04545
T04
X0472Y0255
X0482
X0492
X0502
X0512
X0522
X0532
X0542
X04065Y02545
X03965
X03865
X03765
X03665
X03565
X03465
X03365
X032
X031
X03
X029
X028
X027
X026
X025
X0183Y0255
X0173
X0163
X0153
X0143
X0133
X0123
X0113
X01105Y03195
Y03295
Y03395
Y03495
Y03595
X0473Y0477
X0483
X0493
X0503
X0513
X0523
X0533
X0543
X04075
X03975
X03875
X03775
X03675
X03575
X03475
X03375
X032
X031
X03
X029
X028
X027
X026
X025
X01825Y04765
X01725
X01625
X01525
X01425
X01325
X01225
X01125
M30
